<!-- Generated by IcoMoon.io -->
<svg version="1.1" xmlns="http://www.w3.org/2000/svg" width="48" height="48" viewBox="0 0 48 48">
<title>envelop</title>
<path d="M43.5 6h-39c-2.475 0-4.5 2.025-4.5 4.5v30c0 2.475 2.025 4.5 4.5 4.5h39c2.475 0 4.5-2.025 4.5-4.5v-30c0-2.475-2.025-4.5-4.5-4.5zM18.691 25.799l-12.691 9.886v-23.514l12.691 13.629zM8.268 12h31.464l-15.732 11.813-15.732-11.813zM19.185 26.33l4.815 5.17 4.815-5.17 9.87 12.67h-29.368l9.87-12.67zM29.309 25.799l12.691-13.629v23.514l-12.691-9.886z"></path>
</svg>
