<!-- Generated by IcoMoon.io -->
<svg version="1.1" xmlns="http://www.w3.org/2000/svg" width="48" height="48" viewBox="0 0 48 48">
<title>whatsapp</title>
<path d="M40.922 6.975c-4.491-4.5-10.463-6.975-16.828-6.975-13.106 0-23.775 10.669-23.775 23.784 0 4.191 1.097 8.288 3.178 11.888l-3.375 12.328 12.609-3.309c3.478 1.894 7.388 2.897 11.362 2.897h0.009c0 0 0 0 0 0 13.106 0 23.784-10.669 23.784-23.784 0-6.356-2.475-12.328-6.966-16.828zM24.103 43.575v0c-3.553 0-7.031-0.956-10.069-2.756l-0.722-0.431-7.481 1.959 1.997-7.294-0.469-0.75c-1.987-3.141-3.028-6.778-3.028-10.519 0-10.903 8.869-19.772 19.781-19.772 5.278 0 10.247 2.063 13.978 5.794 3.731 3.741 5.784 8.7 5.784 13.987-0.009 10.913-8.878 19.781-19.772 19.781zM34.941 28.763c-0.591-0.3-3.516-1.734-4.059-1.931s-0.938-0.3-1.341 0.3c-0.394 0.591-1.538 1.931-1.884 2.334-0.347 0.394-0.694 0.45-1.284 0.15s-2.513-0.928-4.781-2.953c-1.763-1.575-2.962-3.525-3.309-4.116s-0.037-0.919 0.263-1.209c0.272-0.263 0.591-0.694 0.891-1.041s0.394-0.591 0.591-0.994c0.197-0.394 0.103-0.741-0.047-1.041s-1.341-3.225-1.828-4.416c-0.478-1.162-0.975-1.003-1.341-1.022-0.347-0.019-0.741-0.019-1.134-0.019s-1.041 0.15-1.584 0.741c-0.544 0.591-2.081 2.034-2.081 4.959s2.128 5.747 2.428 6.15c0.3 0.394 4.191 6.403 10.153 8.972 1.416 0.609 2.522 0.975 3.384 1.256 1.425 0.45 2.719 0.384 3.741 0.234 1.144-0.169 3.516-1.434 4.013-2.822s0.497-2.578 0.347-2.822c-0.141-0.263-0.534-0.413-1.134-0.713z"></path>
</svg>
